<svg version="1.2" xmlns="http://www.w3.org/2000/svg" viewBox="0 0 1214 1182" width="512" height="499"><style>.a{fill:#fcc66f;stroke:#fff;stroke-miterlimit:100;stroke-width:48}.b{fill:#fcc66f;stroke:#fff;stroke-miterlimit:100;stroke-width:16}.c{fill:#fff}</style><path fill-rule="evenodd" class="a" d="m607.5 74.2l458.3 258.4v516.9l-458.3 258.5-458.4-258.5v-516.9z"/><path fill-rule="evenodd" class="b" d="m272.5 583c-17.4 0-31.5-14.1-31.5-31.5 0-17.4 14.1-31.5 31.5-31.5 17.4 0 31.5 14.1 31.5 31.5 0 17.4-14.1 31.5-31.5 31.5z"/><path fill-rule="evenodd" class="b" d="m521 468.8c-17 0-30.8-13.8-30.8-30.8 0-17 13.8-30.8 30.8-30.8 17 0 30.8 13.8 30.8 30.8 0 17-13.8 30.8-30.8 30.8z"/><path fill-rule="evenodd" class="b" d="m722 378.7c-16.4 0-29.7-13.3-29.7-29.7 0-16.4 13.3-29.7 29.7-29.7 16.4 0 29.7 13.3 29.7 29.7 0 16.4-13.3 29.7-29.7 29.7z"/><path fill-rule="evenodd" class="b" d="m886 692.8c-17 0-30.8-13.8-30.8-30.8 0-17 13.8-30.8 30.8-30.8 17 0 30.8 13.8 30.8 30.8 0 17-13.8 30.8-30.8 30.8z"/><path class="c" d="m781 986l34-18v-204l60-65-25-22-70 75zm-141 79l-1-287 100-82v-314h-34v299l-99 84-1 316v4zm-101-22l-1-570h-34l1 552 34 22zm-101-56v-327l-127-100-20 27 113 88v293z"/></svg>